<?xml version="1.0" encoding="utf-8"?>
<!-- Generator: Adobe Illustrator 23.0.1, SVG Export Plug-In . SVG Version: 6.00 Build 0)  -->
<svg version="1.1" xmlns="http://www.w3.org/2000/svg" xmlns:xlink="http://www.w3.org/1999/xlink" x="0px" y="0px"
	 viewBox="0 0 480 306.4" enable-background="new 0 0 480 306.4" xml:space="preserve">
	 <g id="crown">
<path  fill-rule="evenodd" clip-rule="evenodd" d="M480,91.2c-1.1-21.3-19.3-37.6-40.6-36.5
	c-19.7,1.1-35.4,16.8-36.5,36.5c0.1,10.3,4.6,20,12.4,26.7c-5,12.2-29.3,64.4-83,63.4c0,0-76.3,2.6-73.4-112.4h-0.2
	c1-0.9,2-1.8,2.9-2.8c10.1-6.5,16.2-17.7,16.3-29.7c-1.2-21.3-19.5-37.5-40.8-36.3c-19.6,1.1-35.1,16.7-36.3,36.3
	c0.1,12.3,6.5,23.7,17,30.2c0.8,0.8,1.6,1.5,2.5,2.2H220c2.8,115-73.4,112.4-73.4,112.4C94,182.1,69.5,132,63.9,118.5
	c8.3-6.7,13.2-16.7,13.3-27.4c1.3-21.3-15-39.6-36.3-40.8C19.6,49,1.3,65.3,0.1,86.6c-1.3,21.3,14.9,39.6,36.1,40.9L95,306.4h289
	v-0.3l58.6-178.6C462.9,127.5,479.4,111.4,480,91.2z"/>
	</g>
</svg>
