<?xml version="1.0" encoding="utf-8"?><svg xmlns="http://www.w3.org/2000/svg" xmlns:xlink="http://www.w3.org/1999/xlink"><symbol viewBox="0 0 480 306.4" xml:space="preserve" id="crown" xmlns="http://www.w3.org/2000/svg"><g id="atest__crown"><path fill-rule="evenodd" clip-rule="evenodd" d="M480 91.2c-1.1-21.3-19.3-37.6-40.6-36.5-19.7 1.1-35.4 16.8-36.5 36.5.1 10.3 4.6 20 12.4 26.7-5 12.2-29.3 64.4-83 63.4 0 0-76.3 2.6-73.4-112.4h-.2c1-.9 2-1.8 2.9-2.8 10.1-6.5 16.2-17.7 16.3-29.7-1.2-21.3-19.5-37.5-40.8-36.3-19.6 1.1-35.1 16.7-36.3 36.3.1 12.3 6.5 23.7 17 30.2.8.8 1.6 1.5 2.5 2.2h-.3c2.8 115-73.4 112.4-73.4 112.4-52.6.9-77.1-49.2-82.7-62.7 8.3-6.7 13.2-16.7 13.3-27.4 1.3-21.3-15-39.6-36.3-40.8C19.6 49 1.3 65.3.1 86.6c-1.3 21.3 14.9 39.6 36.1 40.9L95 306.4h289v-.3l58.6-178.6c20.3 0 36.8-16.1 37.4-36.3z"/></g></symbol><symbol id="reindeer" viewBox="0 0 407.2 512" xml:space="preserve" xmlns="http://www.w3.org/2000/svg"><g id="btest__face"><path d="M388.8 0c-10.1 0-18.3 8.2-18.3 18.3 0 23.2-1.2 41.5-3.7 55.1-1.8 10.2-4.3 17.8-7.1 23.2-2.1 4-4.2 6.8-6.5 9-3.5 3.2-7.6 5.5-14.1 7.3-6.4 1.7-15.1 2.6-26 2.6h-55.7c-5.8 0-8.5-1.1-10-2.1-1.1-.7-1.9-1.5-2.9-2.9-1.4-2.2-2.9-6.3-3.7-12-.8-5.6-1.1-12.6-1.1-20 0-5.3.1-10.8.1-16.4 0-10.1-8.2-18.3-18.3-18.3s-18.3 8.2-18.3 18.3c0 5.1-.1 10.6-.1 16.4 0 7.2.2 14.8 1.1 22.5.6 4.8 1.6 9.7 3 14.5h-41.4c-5.8 0-8.5-1.1-10-2.1-1.1-.7-1.9-1.5-2.9-2.9-1.4-2.2-2.9-6.3-3.7-12-.8-5.6-1.1-12.6-1.1-20 0-5.3.1-10.8.1-16.4 0-10.1-8.2-18.3-18.3-18.3s-18.3 8.2-18.3 18.3c0 5.1-.1 10.6-.1 16.4 0 7.2.2 14.8 1.1 22.5.6 4.8 1.6 9.7 3 14.5H106c-17.2 0-29.6-2.5-38.4-6.3-6.6-2.8-11.3-6.3-15.1-10.5-5.7-6.3-9.7-14.8-12.3-26.4s-3.6-25.9-3.6-42c0-10.1-8.2-18.3-18.3-18.3S0 20.2 0 30.3C0 45.8.7 60.8 3.4 75c2 10.6 5 20.9 9.8 30.4 7.1 14.3 18.8 26.9 34.5 34.9 15.8 8 35 11.8 58.2 11.8h148.9v65.7c-.3 24.4-56.6 25-114.6 32C39.9 261.9 5.8 296.2 23 344.8c17 48.2 62.3 59 101.6 59s57.1.7 62.3 19.7c9.8 36.1 23 88.5 23 88.5h183.6l-65.6-213.1s49.2-3.3 59-26.2c9.8-22.9-16.3-36.6-45.3-30.5-32.9 6.9-49.9-4.6-49.9-27.4V152h21.5c15 0 28.6-1.2 41.3-5.6 9.5-3.3 18.4-8.5 25.7-16 5.4-5.6 9.9-12.2 13.4-19.6 5.2-11.1 8.5-24 10.6-39.1s3-32.7 3-53.4C407.1 8.2 398.9 0 388.8 0zM205.2 307.7c-8 0-14.5-6.5-14.5-14.5s6.5-14.5 14.5-14.5 14.5 6.5 14.5 14.5-6.5 14.5-14.5 14.5z"/></g><g id="btest__nose"><circle cx="24.7" cy="303" r="17.5"/></g></symbol></svg>